<svg width="60" height="60" viewBox="0 0 60 60" fill="none" xmlns="http://www.w3.org/2000/svg">
<path d="M43 43C40.2386 43 38 45.2386 38 48C38 50.7614 40.2386 53 43 53C45.7614 53 48 50.7614 48 48C48 45.2386 45.7614 43 43 43ZM43 43H23.7349C22.5822 43 22.0048 43 21.5303 42.7949C21.1116 42.614 20.7485 42.3228 20.4838 41.9514C20.1873 41.535 20.068 40.9783 19.8319 39.8763L13.6787 11.1616C13.4371 10.0341 13.3147 9.47094 13.0146 9.0498C12.75 8.67837 12.3869 8.38603 11.9683 8.20512C11.4936 8 10.9195 8 9.76634 8H8M15.5 15.5H47.6831C49.4875 15.5 50.3888 15.5 50.9944 15.8759C51.5249 16.2052 51.9133 16.7215 52.0826 17.3225C52.2759 18.0086 52.0276 18.8749 51.5275 20.6086L48.0659 32.6086C47.7669 33.6453 47.6173 34.1626 47.314 34.5472C47.0462 34.8867 46.693 35.1525 46.2926 35.3157C45.8403 35.5 45.3028 35.5 44.2302 35.5H19.8262M20.5 53C17.7386 53 15.5 50.7614 15.5 48C15.5 45.2386 17.7386 43 20.5 43C23.2614 43 25.5 45.2386 25.5 48C25.5 50.7614 23.2614 53 20.5 53Z" stroke="#34C759" stroke-width="2" stroke-linecap="round" stroke-linejoin="round"/>
</svg>
